{
	"asset":{
		"generator":"Khronos glTF Blender I/O v3.6.27",
		"version":"2.0"
	},
	"extensionsUsed":[
		"KHR_materials_specular",
		"KHR_materials_ior"
	],
	"scene":0,
	"scenes":[
		{
			"name":"Scene",
			"nodes":[
				0
			]
		}
	],
	"nodes":[
		{
			"mesh":0,
			"name":"Hexane.mol",
			"rotation":[
				0.7071068286895752,
				0,
				0,
				0.7071068286895752
			]
		}
	],
	"materials":[
		{
			"doubleSided":true,
			"extensions":{
				"KHR_materials_specular":{
					"specularColorFactor":[
						0.020080160244135427,
						0.020080160244135427,
						0.020080160244135427
					]
				},
				"KHR_materials_ior":{
					"ior":0.0010000000474974513
				}
			},
			"name":"k000000",
			"pbrMetallicRoughness":{
				"baseColorFactor":[
					0,
					0,
					0,
					1
				],
				"metallicFactor":0,
				"roughnessFactor":0.5962674021720886
			}
		},
		{
			"doubleSided":true,
			"extensions":{
				"KHR_materials_specular":{
					"specularColorFactor":[
						0.020080160244135427,
						0.020080160244135427,
						0.020080160244135427
					]
				},
				"KHR_materials_ior":{
					"ior":0.0010000000474974513
				}
			},
			"name":"kffffff",
			"pbrMetallicRoughness":{
				"metallicFactor":0,
				"roughnessFactor":0.5962674021720886
			}
		},
		{
			"doubleSided":true,
			"extensions":{
				"KHR_materials_specular":{
					"specularColorFactor":[
						0.020080160244135427,
						0.020080160244135427,
						0.020080160244135427
					]
				},
				"KHR_materials_ior":{
					"ior":0.0010000000474974513
				}
			},
			"name":"k808080",
			"pbrMetallicRoughness":{
				"baseColorFactor":[
					0.5040000081062317,
					0.5040000081062317,
					0.5040000081062317,
					1
				],
				"metallicFactor":0,
				"roughnessFactor":0.5962674021720886
			}
		}
	],
	"meshes":[
		{
			"name":"Hexane.mol",
			"primitives":[
				{
					"attributes":{
						"POSITION":0,
						"NORMAL":1
					},
					"indices":2,
					"material":0
				},
				{
					"attributes":{
						"POSITION":3,
						"NORMAL":4
					},
					"indices":5,
					"material":1
				},
				{
					"attributes":{
						"POSITION":6,
						"NORMAL":7
					},
					"indices":8,
					"material":2
				}
			]
		}
	],
	"accessors":[
		{
			"bufferView":0,
			"componentType":5126,
			"count":6172,
			"max":[
				3.595900058746338,
				0.44770002365112305,
				0.9663000106811523
			],
			"min":[
				-3.595900058746338,
				-0.43650001287460327,
				-0.9664000272750854
			],
			"type":"VEC3"
		},
		{
			"bufferView":1,
			"componentType":5126,
			"count":6172,
			"type":"VEC3"
		},
		{
			"bufferView":2,
			"componentType":5123,
			"count":23040,
			"type":"SCALAR"
		},
		{
			"bufferView":3,
			"componentType":5126,
			"count":14394,
			"max":[
				4.2972002029418945,
				1.1952999830245972,
				1.4764999151229858
			],
			"min":[
				-4.297100067138672,
				-1.1764999628067017,
				-1.4732999801635742
			],
			"type":"VEC3"
		},
		{
			"bufferView":4,
			"componentType":5126,
			"count":14394,
			"type":"VEC3"
		},
		{
			"bufferView":5,
			"componentType":5123,
			"count":53760,
			"type":"SCALAR"
		},
		{
			"bufferView":6,
			"componentType":5126,
			"count":41296,
			"max":[
				4.123199939727783,
				1.021299958229065,
				1.3024998903274536
			],
			"min":[
				-4.1230998039245605,
				-1.0024999380111694,
				-1.299299955368042
			],
			"type":"VEC3"
		},
		{
			"bufferView":7,
			"componentType":5126,
			"count":41296,
			"type":"VEC3"
		},
		{
			"bufferView":8,
			"componentType":5123,
			"count":150024,
			"type":"SCALAR"
		}
	],
	"bufferViews":[
		{
			"buffer":0,
			"byteLength":74064,
			"byteOffset":0,
			"target":34962
		},
		{
			"buffer":0,
			"byteLength":74064,
			"byteOffset":74064,
			"target":34962
		},
		{
			"buffer":0,
			"byteLength":46080,
			"byteOffset":148128,
			"target":34963
		},
		{
			"buffer":0,
			"byteLength":172728,
			"byteOffset":194208,
			"target":34962
		},
		{
			"buffer":0,
			"byteLength":172728,
			"byteOffset":366936,
			"target":34962
		},
		{
			"buffer":0,
			"byteLength":107520,
			"byteOffset":539664,
			"target":34963
		},
		{
			"buffer":0,
			"byteLength":495552,
			"byteOffset":647184,
			"target":34962
		},
		{
			"buffer":0,
			"byteLength":495552,
			"byteOffset":1142736,
			"target":34962
		},
		{
			"buffer":0,
			"byteLength":300048,
			"byteOffset":1638288,
			"target":34963
		}
	],
	"buffers":[
		{
			"byteLength":1938336,
			"uri":"data:application/octet-stream;base64,"
		}
	]
}
